<?xml version="1.0" standalone="no"?>
<!DOCTYPE svg PUBLIC "-//W3C//DTD SVG 20010904//EN"
 "http://www.w3.org/TR/2001/REC-SVG-20010904/DTD/svg10.dtd">
<svg version="1.0" xmlns="http://www.w3.org/2000/svg"
 width="500.000000pt" height="500.000000pt" viewBox="0 0 500.000000 500.000000"
 preserveAspectRatio="xMidYMid meet">

<g transform="translate(0.000000,500.000000) scale(0.100000,-0.100000)"
fill="#000000" stroke="none">
<path d="M0 2500 l0 -2500 2500 0 2500 0 0 2500 0 2500 -2500 0 -2500 0 0
-2500z m729 156 c28 -15 56 -61 46 -77 -10 -15 -65 -11 -65 6 0 35 -81 44 -94
10 -10 -27 3 -40 77 -75 85 -41 105 -70 87 -124 -13 -39 -42 -62 -92 -71 -47
-9 -114 19 -133 56 -22 41 -19 49 18 49 24 0 35 -6 42 -22 8 -18 18 -23 49
-23 42 0 64 20 53 49 -4 9 -37 30 -74 47 -78 34 -93 50 -93 97 0 52 45 92 105
92 25 0 58 -6 74 -14z m310 -91 c29 -58 55 -105 57 -105 2 0 27 47 56 105 l52
106 36 -3 35 -3 2 -167 1 -168 -34 0 -34 0 -1 113 0 112 -45 -88 c-40 -79 -47
-88 -70 -85 -21 2 -34 19 -70 88 l-44 85 0 -112 0 -113 -35 0 -35 0 0 163 c0
90 3 167 7 170 3 4 20 7 38 7 30 0 34 -5 84 -105z m603 -55 c31 -85 57 -161
57 -167 1 -8 -11 -13 -27 -13 -24 0 -31 6 -45 40 l-15 40 -65 0 -64 0 -12 -40
c-11 -37 -15 -40 -46 -40 l-35 0 36 98 c20 53 48 130 62 170 27 73 27 73 62
70 l35 -3 57 -155z m363 146 c70 -29 84 -124 25 -167 l-29 -22 35 -68 34 -69
-35 0 c-33 0 -37 3 -67 65 -26 52 -37 65 -55 65 -22 0 -23 -4 -23 -65 l0 -65
-35 0 -35 0 0 163 c0 90 3 167 7 170 12 13 143 7 178 -7z m435 -11 c0 -23 -3
-25 -50 -25 l-50 0 0 -145 0 -145 -30 0 -30 0 0 145 0 145 -50 0 c-47 0 -50 2
-50 25 l0 25 130 0 130 0 0 -25z m491 -4 c16 -16 29 -37 29 -45 0 -25 -36 -19
-54 9 -22 33 -59 42 -91 21 -52 -34 -27 -79 58 -106 56 -18 97 -56 97 -92 0
-78 -66 -121 -151 -98 -61 17 -110 100 -59 100 11 0 20 -6 20 -14 0 -22 49
-56 81 -56 33 0 69 31 69 58 0 26 -26 47 -89 71 -72 27 -91 46 -91 90 1 60 37
90 108 91 35 0 49 -6 73 -29z m403 10 c27 -18 55 -55 56 -73 0 -5 -11 -8 -24
-8 -16 0 -27 7 -31 21 -4 11 -22 27 -41 35 -69 29 -145 -15 -160 -92 -16 -89
30 -162 109 -171 44 -5 49 -3 81 31 30 31 66 48 66 31 0 -27 -38 -70 -76 -87
-110 -48 -223 32 -224 160 0 71 39 139 95 162 38 16 118 11 149 -9z m391 -138
c32 -87 60 -164 63 -171 3 -10 -2 -13 -18 -10 -17 2 -27 14 -38 46 l-14 43
-71 -3 -72 -3 -15 -42 c-11 -34 -19 -43 -37 -43 -20 0 -22 3 -12 28 6 15 33
87 60 160 57 157 55 152 78 152 15 0 31 -33 76 -157z m235 2 l0 -155 80 0 c64
0 80 -3 80 -15 0 -12 -18 -15 -100 -15 l-100 0 0 170 c0 163 1 170 20 170 19
0 20 -7 20 -155z m490 135 c0 -18 -7 -20 -85 -20 l-85 0 0 -55 0 -54 77 -3
c65 -3 78 -6 81 -20 3 -16 -6 -18 -78 -18 l-81 0 3 -57 3 -58 83 -3 c64 -2 82
-6 82 -17 0 -12 -20 -15 -105 -15 l-105 0 0 170 0 170 105 0 c98 0 105 -1 105
-20z"/>
<path d="M1523 2525 l-21 -65 44 0 c24 0 44 4 44 8 0 13 -32 106 -39 114 -4 5
-16 -21 -28 -57z"/>
<path d="M1890 2563 l0 -53 43 0 c50 0 67 13 67 51 0 34 -15 46 -67 51 l-43 4
0 -53z"/>
<path d="M3623 2547 c-12 -34 -25 -70 -28 -79 -6 -16 0 -18 49 -18 31 0 56 4
56 8 0 12 -37 118 -47 136 -6 11 -14 -2 -30 -47z"/>
</g>
</svg>
